<?xml version="1.0" encoding="UTF-8" standalone="no"?>
<svg
   width="500"
   zoomAndPan="magnify"
   viewBox="0 0 375 374.99999"
   height="500"
   preserveAspectRatio="xMidYMid"
   version="1.2"
   id="svg4"
   sodipodi:docname="Codexon-Logo.svg"
   inkscape:version="1.4.2 (ebf0e940, 2025-05-08)"
   xmlns:inkscape="http://www.inkscape.org/namespaces/inkscape"
   xmlns:sodipodi="http://sodipodi.sourceforge.net/DTD/sodipodi-0.dtd"
   xmlns="http://www.w3.org/2000/svg"
   xmlns:svg="http://www.w3.org/2000/svg">
  <sodipodi:namedview
     id="namedview4"
     pagecolor="#ffffff"
     bordercolor="#000000"
     borderopacity="0.25"
     inkscape:showpageshadow="2"
     inkscape:pageopacity="0.0"
     inkscape:pagecheckerboard="0"
     inkscape:deskcolor="#d1d1d1"
     inkscape:zoom="0.64892304"
     inkscape:cx="265.82505"
     inkscape:cy="198.79091"
     inkscape:window-width="1472"
     inkscape:window-height="819"
     inkscape:window-x="0"
     inkscape:window-y="38"
     inkscape:window-maximized="0"
     inkscape:current-layer="svg4">
    <inkscape:page
       x="0"
       y="0"
       width="375"
       height="375"
       id="page2"
       margin="0"
       bleed="0" />
  </sodipodi:namedview>
  <defs
     id="defs2">
    <clipPath
       id="e100450f54">
      <path
         d="m 90.40625,75.363281 h 194.25 V 299.61328 h -194.25 z m 0,0"
         id="path1" />
    </clipPath>
  </defs>
  <g
     id="1a3a2f2ea2"
     style="fill:#5271ff;fill-opacity:1">
    <g
       clip-rule="nonzero"
       clip-path="url(#e100450f54)"
       id="g3"
       transform="matrix(1.3880704,0,0,1.3880704,-72.37058,-75.865113)"
       style="fill:#5271ff;fill-opacity:1">
      <path
         style="fill:#5271ff;fill-opacity:1;fill-rule:nonzero;stroke:none"
         d="m 219.39062,206.02344 -81.84765,47.25781 -32.00781,-18.48047 v -85.89062 l 34.8125,20.10546 v 45.6875 l 16.8789,9.73829 15.12891,-8.73438 -16.87891,-9.73828 v -45.6875 l -42.37109,-24.47656 74.3789,-42.945315 66.82422,38.578125 -34.8125,20.10547 -32.01172,-18.48047 -24.4375,14.11328 15.12891,8.73438 9.30859,-5.37891 32.00391,18.48437 1.69531,-0.98046 L 284.56641,131.4375 187.48437,75.390625 90.40625,131.4375 v 112.10547 l 47.13672,27.21094 81.94531,-47.31641 34.8125,20.09766 -66.81641,38.57812 -19.6875,-11.35937 -15.125,8.73437 34.8125,20.09375 97.08204,-56.03906 -65.07813,-37.57422 z m 0,0"
         id="path3" />
    </g>
  </g>
</svg>
